<mxfile host="Electron" modified="2024-01-15T20:34:49.288Z" agent="Mozilla/5.0 (Windows NT 10.0; Win64; x64) AppleWebKit/537.36 (KHTML, like Gecko) draw.io/22.0.2 Chrome/114.0.5735.289 Electron/25.8.4 Safari/537.36" etag="gh_n_GTbhe2Tx-IIpvaG" version="22.0.2" type="device">
  <diagram name="第 1 页" id="mHxBCF7MGJ3_nBYpgqUW">
    <mxGraphModel dx="1418" dy="828" grid="1" gridSize="10" guides="1" tooltips="1" connect="1" arrows="1" fold="1" page="1" pageScale="1" pageWidth="827" pageHeight="1169" math="0" shadow="0">
      <root>
        <mxCell id="0" />
        <mxCell id="1" parent="0" />
        <mxCell id="UnQaDXnfDHta0mpwwzSg-1" style="edgeStyle=none;shape=connector;rounded=0;orthogonalLoop=1;jettySize=auto;html=1;exitX=0.5;exitY=1;exitDx=0;exitDy=0;entryX=0.5;entryY=0;entryDx=0;entryDy=0;labelBackgroundColor=default;strokeColor=default;align=center;verticalAlign=middle;fontFamily=Helvetica;fontSize=11;fontColor=default;endArrow=none;endFill=0;" parent="1" source="UnQaDXnfDHta0mpwwzSg-3" target="UnQaDXnfDHta0mpwwzSg-5" edge="1">
          <mxGeometry relative="1" as="geometry" />
        </mxCell>
        <mxCell id="UnQaDXnfDHta0mpwwzSg-3" value="&lt;font color=&quot;#ffffff&quot;&gt;8&lt;/font&gt;" style="ellipse;whiteSpace=wrap;html=1;aspect=fixed;fillColor=#000000;strokeWidth=0;strokeColor=none;" parent="1" vertex="1">
          <mxGeometry x="160.5" y="40" width="40" height="40" as="geometry" />
        </mxCell>
        <mxCell id="UnQaDXnfDHta0mpwwzSg-4" style="rounded=0;orthogonalLoop=1;jettySize=auto;html=1;exitX=0.5;exitY=1;exitDx=0;exitDy=0;entryX=0.5;entryY=0;entryDx=0;entryDy=0;endArrow=none;endFill=0;" parent="1" source="UnQaDXnfDHta0mpwwzSg-5" target="UnQaDXnfDHta0mpwwzSg-7" edge="1">
          <mxGeometry relative="1" as="geometry" />
        </mxCell>
        <mxCell id="UnQaDXnfDHta0mpwwzSg-5" value="&lt;font color=&quot;#ffffff&quot;&gt;5&lt;/font&gt;" style="ellipse;whiteSpace=wrap;html=1;aspect=fixed;fillColor=#FF0000;strokeWidth=0;strokeColor=none;" parent="1" vertex="1">
          <mxGeometry x="120.5" y="120" width="40" height="40" as="geometry" />
        </mxCell>
        <mxCell id="UnQaDXnfDHta0mpwwzSg-7" value="&lt;font color=&quot;#ffffff&quot;&gt;6&lt;/font&gt;" style="ellipse;whiteSpace=wrap;html=1;aspect=fixed;fillColor=#FF0000;strokeWidth=0;strokeColor=none;" parent="1" vertex="1">
          <mxGeometry x="160" y="200" width="40" height="40" as="geometry" />
        </mxCell>
        <mxCell id="UnQaDXnfDHta0mpwwzSg-8" value="x" style="text;html=1;align=center;verticalAlign=middle;resizable=0;points=[];autosize=1;strokeColor=none;fillColor=none;" parent="1" vertex="1">
          <mxGeometry x="130" y="205" width="30" height="30" as="geometry" />
        </mxCell>
        <mxCell id="UnQaDXnfDHta0mpwwzSg-9" value="xp, xppl" style="text;html=1;align=center;verticalAlign=middle;resizable=0;points=[];autosize=1;strokeColor=none;fillColor=none;" parent="1" vertex="1">
          <mxGeometry x="60.5" y="125" width="60" height="30" as="geometry" />
        </mxCell>
        <mxCell id="UnQaDXnfDHta0mpwwzSg-10" value="xpp" style="text;html=1;align=center;verticalAlign=middle;resizable=0;points=[];autosize=1;strokeColor=none;fillColor=none;" parent="1" vertex="1">
          <mxGeometry x="120.5" y="45" width="40" height="30" as="geometry" />
        </mxCell>
        <mxCell id="UnQaDXnfDHta0mpwwzSg-12" style="edgeStyle=none;shape=connector;rounded=0;orthogonalLoop=1;jettySize=auto;html=1;exitX=0.5;exitY=1;exitDx=0;exitDy=0;entryX=0.5;entryY=0;entryDx=0;entryDy=0;labelBackgroundColor=default;strokeColor=default;align=center;verticalAlign=middle;fontFamily=Helvetica;fontSize=11;fontColor=default;endArrow=none;endFill=0;" parent="1" source="UnQaDXnfDHta0mpwwzSg-14" target="UnQaDXnfDHta0mpwwzSg-16" edge="1">
          <mxGeometry relative="1" as="geometry" />
        </mxCell>
        <mxCell id="UnQaDXnfDHta0mpwwzSg-13" style="edgeStyle=none;shape=connector;rounded=0;orthogonalLoop=1;jettySize=auto;html=1;exitX=0.5;exitY=1;exitDx=0;exitDy=0;entryX=0.5;entryY=0;entryDx=0;entryDy=0;labelBackgroundColor=default;strokeColor=default;align=center;verticalAlign=middle;fontFamily=Helvetica;fontSize=11;fontColor=default;endArrow=none;endFill=0;" parent="1" source="UnQaDXnfDHta0mpwwzSg-14" target="UnQaDXnfDHta0mpwwzSg-17" edge="1">
          <mxGeometry relative="1" as="geometry" />
        </mxCell>
        <mxCell id="UnQaDXnfDHta0mpwwzSg-14" value="&lt;font color=&quot;#ffffff&quot;&gt;8&lt;/font&gt;" style="ellipse;whiteSpace=wrap;html=1;aspect=fixed;fillColor=#000000;strokeWidth=0;strokeColor=none;" parent="1" vertex="1">
          <mxGeometry x="160.5" y="280" width="40" height="40" as="geometry" />
        </mxCell>
        <mxCell id="UnQaDXnfDHta0mpwwzSg-15" style="rounded=0;orthogonalLoop=1;jettySize=auto;html=1;exitX=0.5;exitY=1;exitDx=0;exitDy=0;entryX=0.5;entryY=0;entryDx=0;entryDy=0;endArrow=none;endFill=0;" parent="1" source="UnQaDXnfDHta0mpwwzSg-16" target="UnQaDXnfDHta0mpwwzSg-18" edge="1">
          <mxGeometry relative="1" as="geometry" />
        </mxCell>
        <mxCell id="UnQaDXnfDHta0mpwwzSg-16" value="&lt;font color=&quot;#ffffff&quot;&gt;5&lt;/font&gt;" style="ellipse;whiteSpace=wrap;html=1;aspect=fixed;fillColor=#FF0000;strokeWidth=0;strokeColor=none;" parent="1" vertex="1">
          <mxGeometry x="120.5" y="360" width="40" height="40" as="geometry" />
        </mxCell>
        <mxCell id="UnQaDXnfDHta0mpwwzSg-17" value="&lt;font color=&quot;#ffffff&quot;&gt;9&lt;/font&gt;" style="ellipse;whiteSpace=wrap;html=1;aspect=fixed;fillColor=#000000;strokeWidth=0;strokeColor=none;" parent="1" vertex="1">
          <mxGeometry x="200.5" y="360" width="40" height="40" as="geometry" />
        </mxCell>
        <mxCell id="UnQaDXnfDHta0mpwwzSg-18" value="&lt;font color=&quot;#ffffff&quot;&gt;6&lt;/font&gt;" style="ellipse;whiteSpace=wrap;html=1;aspect=fixed;fillColor=#FF0000;strokeWidth=0;strokeColor=none;" parent="1" vertex="1">
          <mxGeometry x="160" y="440" width="40" height="40" as="geometry" />
        </mxCell>
        <mxCell id="UnQaDXnfDHta0mpwwzSg-19" value="x" style="text;html=1;align=center;verticalAlign=middle;resizable=0;points=[];autosize=1;strokeColor=none;fillColor=none;" parent="1" vertex="1">
          <mxGeometry x="130" y="445" width="30" height="30" as="geometry" />
        </mxCell>
        <mxCell id="UnQaDXnfDHta0mpwwzSg-20" value="xp, xppl" style="text;html=1;align=center;verticalAlign=middle;resizable=0;points=[];autosize=1;strokeColor=none;fillColor=none;" parent="1" vertex="1">
          <mxGeometry x="60.5" y="365" width="60" height="30" as="geometry" />
        </mxCell>
        <mxCell id="UnQaDXnfDHta0mpwwzSg-21" value="xpp" style="text;html=1;align=center;verticalAlign=middle;resizable=0;points=[];autosize=1;strokeColor=none;fillColor=none;" parent="1" vertex="1">
          <mxGeometry x="120.5" y="285" width="40" height="30" as="geometry" />
        </mxCell>
        <mxCell id="UnQaDXnfDHta0mpwwzSg-22" value="xppr" style="text;html=1;align=center;verticalAlign=middle;resizable=0;points=[];autosize=1;strokeColor=none;fillColor=none;" parent="1" vertex="1">
          <mxGeometry x="220" y="390" width="50" height="30" as="geometry" />
        </mxCell>
        <mxCell id="3taIB5_44RV1hRLuxSHi-1" style="edgeStyle=none;shape=connector;rounded=0;orthogonalLoop=1;jettySize=auto;html=1;exitX=0.5;exitY=1;exitDx=0;exitDy=0;entryX=0.5;entryY=0;entryDx=0;entryDy=0;labelBackgroundColor=default;strokeColor=default;align=center;verticalAlign=middle;fontFamily=Helvetica;fontSize=11;fontColor=default;endArrow=none;endFill=0;" parent="1" source="3taIB5_44RV1hRLuxSHi-2" target="3taIB5_44RV1hRLuxSHi-4" edge="1">
          <mxGeometry relative="1" as="geometry" />
        </mxCell>
        <mxCell id="3taIB5_44RV1hRLuxSHi-2" value="&lt;font color=&quot;#ffffff&quot;&gt;8&lt;/font&gt;" style="ellipse;whiteSpace=wrap;html=1;aspect=fixed;fillColor=#000000;strokeWidth=0;strokeColor=none;" parent="1" vertex="1">
          <mxGeometry x="400" y="40" width="40" height="40" as="geometry" />
        </mxCell>
        <mxCell id="3taIB5_44RV1hRLuxSHi-3" style="rounded=0;orthogonalLoop=1;jettySize=auto;html=1;exitX=0.5;exitY=1;exitDx=0;exitDy=0;entryX=0.5;entryY=0;entryDx=0;entryDy=0;endArrow=none;endFill=0;" parent="1" source="3taIB5_44RV1hRLuxSHi-4" target="3taIB5_44RV1hRLuxSHi-5" edge="1">
          <mxGeometry relative="1" as="geometry" />
        </mxCell>
        <mxCell id="3taIB5_44RV1hRLuxSHi-4" value="&lt;font color=&quot;#ffffff&quot;&gt;6&lt;/font&gt;" style="ellipse;whiteSpace=wrap;html=1;aspect=fixed;fillColor=#FF0000;strokeWidth=0;strokeColor=none;" parent="1" vertex="1">
          <mxGeometry x="360" y="120" width="40" height="40" as="geometry" />
        </mxCell>
        <mxCell id="3taIB5_44RV1hRLuxSHi-5" value="&lt;font color=&quot;#ffffff&quot;&gt;5&lt;/font&gt;" style="ellipse;whiteSpace=wrap;html=1;aspect=fixed;fillColor=#FF0000;strokeWidth=0;strokeColor=none;" parent="1" vertex="1">
          <mxGeometry x="320" y="200" width="40" height="40" as="geometry" />
        </mxCell>
        <mxCell id="3taIB5_44RV1hRLuxSHi-6" value="x" style="text;html=1;align=center;verticalAlign=middle;resizable=0;points=[];autosize=1;strokeColor=none;fillColor=none;" parent="1" vertex="1">
          <mxGeometry x="290" y="205" width="30" height="30" as="geometry" />
        </mxCell>
        <mxCell id="3taIB5_44RV1hRLuxSHi-7" value="xp" style="text;html=1;align=center;verticalAlign=middle;resizable=0;points=[];autosize=1;strokeColor=none;fillColor=none;" parent="1" vertex="1">
          <mxGeometry x="320" y="125" width="40" height="30" as="geometry" />
        </mxCell>
        <mxCell id="3taIB5_44RV1hRLuxSHi-8" value="xpp" style="text;html=1;align=center;verticalAlign=middle;resizable=0;points=[];autosize=1;strokeColor=none;fillColor=none;" parent="1" vertex="1">
          <mxGeometry x="360" y="45" width="40" height="30" as="geometry" />
        </mxCell>
        <mxCell id="3taIB5_44RV1hRLuxSHi-10" value="x=xp，x左旋" style="shape=singleArrow;whiteSpace=wrap;html=1;arrowWidth=0.4;arrowSize=0.4;" parent="1" vertex="1">
          <mxGeometry x="210" y="110" width="80" height="60" as="geometry" />
        </mxCell>
        <mxCell id="3taIB5_44RV1hRLuxSHi-11" style="edgeStyle=none;shape=connector;rounded=0;orthogonalLoop=1;jettySize=auto;html=1;exitX=0.5;exitY=1;exitDx=0;exitDy=0;entryX=0.5;entryY=0;entryDx=0;entryDy=0;labelBackgroundColor=default;strokeColor=default;align=center;verticalAlign=middle;fontFamily=Helvetica;fontSize=11;fontColor=default;endArrow=none;endFill=0;" parent="1" source="3taIB5_44RV1hRLuxSHi-13" target="3taIB5_44RV1hRLuxSHi-15" edge="1">
          <mxGeometry relative="1" as="geometry" />
        </mxCell>
        <mxCell id="3taIB5_44RV1hRLuxSHi-12" style="edgeStyle=none;shape=connector;rounded=0;orthogonalLoop=1;jettySize=auto;html=1;exitX=0.5;exitY=1;exitDx=0;exitDy=0;entryX=0.5;entryY=0;entryDx=0;entryDy=0;labelBackgroundColor=default;strokeColor=default;align=center;verticalAlign=middle;fontFamily=Helvetica;fontSize=11;fontColor=default;endArrow=none;endFill=0;" parent="1" source="3taIB5_44RV1hRLuxSHi-13" target="3taIB5_44RV1hRLuxSHi-16" edge="1">
          <mxGeometry relative="1" as="geometry" />
        </mxCell>
        <mxCell id="3taIB5_44RV1hRLuxSHi-13" value="&lt;font color=&quot;#ffffff&quot;&gt;8&lt;/font&gt;" style="ellipse;whiteSpace=wrap;html=1;aspect=fixed;fillColor=#000000;strokeWidth=0;strokeColor=none;" parent="1" vertex="1">
          <mxGeometry x="401" y="280" width="40" height="40" as="geometry" />
        </mxCell>
        <mxCell id="3taIB5_44RV1hRLuxSHi-14" style="rounded=0;orthogonalLoop=1;jettySize=auto;html=1;exitX=0.5;exitY=1;exitDx=0;exitDy=0;entryX=0.5;entryY=0;entryDx=0;entryDy=0;endArrow=none;endFill=0;" parent="1" source="3taIB5_44RV1hRLuxSHi-15" target="3taIB5_44RV1hRLuxSHi-17" edge="1">
          <mxGeometry relative="1" as="geometry" />
        </mxCell>
        <mxCell id="3taIB5_44RV1hRLuxSHi-15" value="&lt;font color=&quot;#ffffff&quot;&gt;6&lt;/font&gt;" style="ellipse;whiteSpace=wrap;html=1;aspect=fixed;fillColor=#FF0000;strokeWidth=0;strokeColor=none;" parent="1" vertex="1">
          <mxGeometry x="361" y="360" width="40" height="40" as="geometry" />
        </mxCell>
        <mxCell id="3taIB5_44RV1hRLuxSHi-16" value="&lt;font color=&quot;#ffffff&quot;&gt;9&lt;/font&gt;" style="ellipse;whiteSpace=wrap;html=1;aspect=fixed;fillColor=#000000;strokeWidth=0;strokeColor=none;" parent="1" vertex="1">
          <mxGeometry x="441" y="360" width="40" height="40" as="geometry" />
        </mxCell>
        <mxCell id="3taIB5_44RV1hRLuxSHi-17" value="&lt;font color=&quot;#ffffff&quot;&gt;5&lt;/font&gt;" style="ellipse;whiteSpace=wrap;html=1;aspect=fixed;fillColor=#FF0000;strokeWidth=0;strokeColor=none;" parent="1" vertex="1">
          <mxGeometry x="320" y="440" width="40" height="40" as="geometry" />
        </mxCell>
        <mxCell id="3taIB5_44RV1hRLuxSHi-18" value="x" style="text;html=1;align=center;verticalAlign=middle;resizable=0;points=[];autosize=1;strokeColor=none;fillColor=none;" parent="1" vertex="1">
          <mxGeometry x="290" y="445" width="30" height="30" as="geometry" />
        </mxCell>
        <mxCell id="3taIB5_44RV1hRLuxSHi-19" value="xp" style="text;html=1;align=center;verticalAlign=middle;resizable=0;points=[];autosize=1;strokeColor=none;fillColor=none;" parent="1" vertex="1">
          <mxGeometry x="374" y="395" width="40" height="30" as="geometry" />
        </mxCell>
        <mxCell id="3taIB5_44RV1hRLuxSHi-20" value="xpp" style="text;html=1;align=center;verticalAlign=middle;resizable=0;points=[];autosize=1;strokeColor=none;fillColor=none;" parent="1" vertex="1">
          <mxGeometry x="361" y="285" width="40" height="30" as="geometry" />
        </mxCell>
        <mxCell id="3taIB5_44RV1hRLuxSHi-21" value="xppr" style="text;html=1;align=center;verticalAlign=middle;resizable=0;points=[];autosize=1;strokeColor=none;fillColor=none;" parent="1" vertex="1">
          <mxGeometry x="436" y="400" width="50" height="30" as="geometry" />
        </mxCell>
        <mxCell id="3taIB5_44RV1hRLuxSHi-22" value="x=xp，x左旋" style="shape=singleArrow;whiteSpace=wrap;html=1;arrowWidth=0.4;arrowSize=0.4;" parent="1" vertex="1">
          <mxGeometry x="260" y="350" width="80" height="60" as="geometry" />
        </mxCell>
        <mxCell id="aPeo5oANlTzVJLYgjjRE-2" value="&lt;font color=&quot;#ffffff&quot;&gt;8&lt;/font&gt;" style="ellipse;whiteSpace=wrap;html=1;aspect=fixed;fillColor=#FF0000;strokeWidth=0;strokeColor=none;" parent="1" vertex="1">
          <mxGeometry x="640" y="160" width="40" height="40" as="geometry" />
        </mxCell>
        <mxCell id="aPeo5oANlTzVJLYgjjRE-3" style="rounded=0;orthogonalLoop=1;jettySize=auto;html=1;exitX=0.5;exitY=1;exitDx=0;exitDy=0;entryX=0.5;entryY=0;entryDx=0;entryDy=0;endArrow=none;endFill=0;" parent="1" source="aPeo5oANlTzVJLYgjjRE-4" target="aPeo5oANlTzVJLYgjjRE-5" edge="1">
          <mxGeometry relative="1" as="geometry" />
        </mxCell>
        <mxCell id="aPeo5oANlTzVJLYgjjRE-11" style="rounded=0;orthogonalLoop=1;jettySize=auto;html=1;exitX=0.5;exitY=1;exitDx=0;exitDy=0;entryX=0.5;entryY=0;entryDx=0;entryDy=0;endArrow=none;endFill=0;" parent="1" source="aPeo5oANlTzVJLYgjjRE-4" target="aPeo5oANlTzVJLYgjjRE-2" edge="1">
          <mxGeometry relative="1" as="geometry" />
        </mxCell>
        <mxCell id="aPeo5oANlTzVJLYgjjRE-4" value="&lt;font color=&quot;#ffffff&quot;&gt;6&lt;/font&gt;" style="ellipse;whiteSpace=wrap;html=1;aspect=fixed;fillColor=#000000;strokeWidth=0;strokeColor=none;" parent="1" vertex="1">
          <mxGeometry x="600" y="80" width="40" height="40" as="geometry" />
        </mxCell>
        <mxCell id="aPeo5oANlTzVJLYgjjRE-5" value="&lt;font color=&quot;#ffffff&quot;&gt;5&lt;/font&gt;" style="ellipse;whiteSpace=wrap;html=1;aspect=fixed;fillColor=#FF0000;strokeWidth=0;strokeColor=none;" parent="1" vertex="1">
          <mxGeometry x="560" y="160" width="40" height="40" as="geometry" />
        </mxCell>
        <mxCell id="aPeo5oANlTzVJLYgjjRE-6" value="x" style="text;html=1;align=center;verticalAlign=middle;resizable=0;points=[];autosize=1;strokeColor=none;fillColor=none;" parent="1" vertex="1">
          <mxGeometry x="530" y="165" width="30" height="30" as="geometry" />
        </mxCell>
        <mxCell id="aPeo5oANlTzVJLYgjjRE-7" value="xp" style="text;html=1;align=center;verticalAlign=middle;resizable=0;points=[];autosize=1;strokeColor=none;fillColor=none;" parent="1" vertex="1">
          <mxGeometry x="560" y="85" width="40" height="30" as="geometry" />
        </mxCell>
        <mxCell id="aPeo5oANlTzVJLYgjjRE-8" value="xpp" style="text;html=1;align=center;verticalAlign=middle;resizable=0;points=[];autosize=1;strokeColor=none;fillColor=none;" parent="1" vertex="1">
          <mxGeometry x="680" y="165" width="40" height="30" as="geometry" />
        </mxCell>
        <mxCell id="aPeo5oANlTzVJLYgjjRE-12" value="修改颜色，xpp右旋" style="shape=singleArrow;whiteSpace=wrap;html=1;arrowWidth=0.4;arrowSize=0.4;" parent="1" vertex="1">
          <mxGeometry x="441" y="110" width="80" height="60" as="geometry" />
        </mxCell>
        <mxCell id="aPeo5oANlTzVJLYgjjRE-14" style="edgeStyle=none;shape=connector;rounded=0;orthogonalLoop=1;jettySize=auto;html=1;exitX=0.5;exitY=1;exitDx=0;exitDy=0;entryX=0.5;entryY=0;entryDx=0;entryDy=0;labelBackgroundColor=default;strokeColor=default;align=center;verticalAlign=middle;fontFamily=Helvetica;fontSize=11;fontColor=default;endArrow=none;endFill=0;" parent="1" source="aPeo5oANlTzVJLYgjjRE-15" target="aPeo5oANlTzVJLYgjjRE-18" edge="1">
          <mxGeometry relative="1" as="geometry" />
        </mxCell>
        <mxCell id="aPeo5oANlTzVJLYgjjRE-15" value="&lt;font color=&quot;#ffffff&quot;&gt;8&lt;/font&gt;" style="ellipse;whiteSpace=wrap;html=1;aspect=fixed;fillColor=#FF0000;strokeWidth=0;strokeColor=none;" parent="1" vertex="1">
          <mxGeometry x="680.5" y="360" width="40" height="40" as="geometry" />
        </mxCell>
        <mxCell id="aPeo5oANlTzVJLYgjjRE-16" style="rounded=0;orthogonalLoop=1;jettySize=auto;html=1;exitX=0.5;exitY=1;exitDx=0;exitDy=0;entryX=0.5;entryY=0;entryDx=0;entryDy=0;endArrow=none;endFill=0;" parent="1" source="aPeo5oANlTzVJLYgjjRE-17" target="aPeo5oANlTzVJLYgjjRE-19" edge="1">
          <mxGeometry relative="1" as="geometry" />
        </mxCell>
        <mxCell id="aPeo5oANlTzVJLYgjjRE-24" style="rounded=0;orthogonalLoop=1;jettySize=auto;html=1;exitX=0.5;exitY=1;exitDx=0;exitDy=0;entryX=0.5;entryY=0;entryDx=0;entryDy=0;endArrow=none;endFill=0;" parent="1" source="aPeo5oANlTzVJLYgjjRE-17" target="aPeo5oANlTzVJLYgjjRE-15" edge="1">
          <mxGeometry relative="1" as="geometry" />
        </mxCell>
        <mxCell id="aPeo5oANlTzVJLYgjjRE-17" value="&lt;font color=&quot;#ffffff&quot;&gt;6&lt;/font&gt;" style="ellipse;whiteSpace=wrap;html=1;aspect=fixed;fillColor=#000000;strokeWidth=0;strokeColor=none;" parent="1" vertex="1">
          <mxGeometry x="640.5" y="280" width="40" height="40" as="geometry" />
        </mxCell>
        <mxCell id="aPeo5oANlTzVJLYgjjRE-18" value="&lt;font color=&quot;#ffffff&quot;&gt;9&lt;/font&gt;" style="ellipse;whiteSpace=wrap;html=1;aspect=fixed;fillColor=#000000;strokeWidth=0;strokeColor=none;" parent="1" vertex="1">
          <mxGeometry x="720.5" y="440" width="40" height="40" as="geometry" />
        </mxCell>
        <mxCell id="aPeo5oANlTzVJLYgjjRE-19" value="&lt;font color=&quot;#ffffff&quot;&gt;5&lt;/font&gt;" style="ellipse;whiteSpace=wrap;html=1;aspect=fixed;fillColor=#FF0000;strokeWidth=0;strokeColor=none;" parent="1" vertex="1">
          <mxGeometry x="599.5" y="360" width="40" height="40" as="geometry" />
        </mxCell>
        <mxCell id="aPeo5oANlTzVJLYgjjRE-20" value="x" style="text;html=1;align=center;verticalAlign=middle;resizable=0;points=[];autosize=1;strokeColor=none;fillColor=none;" parent="1" vertex="1">
          <mxGeometry x="604" y="400" width="30" height="30" as="geometry" />
        </mxCell>
        <mxCell id="aPeo5oANlTzVJLYgjjRE-21" value="xp" style="text;html=1;align=center;verticalAlign=middle;resizable=0;points=[];autosize=1;strokeColor=none;fillColor=none;" parent="1" vertex="1">
          <mxGeometry x="604" y="285" width="40" height="30" as="geometry" />
        </mxCell>
        <mxCell id="aPeo5oANlTzVJLYgjjRE-22" value="xpp" style="text;html=1;align=center;verticalAlign=middle;resizable=0;points=[];autosize=1;strokeColor=none;fillColor=none;" parent="1" vertex="1">
          <mxGeometry x="724.5" y="365" width="40" height="30" as="geometry" />
        </mxCell>
        <mxCell id="aPeo5oANlTzVJLYgjjRE-23" value="xppr" style="text;html=1;align=center;verticalAlign=middle;resizable=0;points=[];autosize=1;strokeColor=none;fillColor=none;" parent="1" vertex="1">
          <mxGeometry x="755.5" y="445" width="50" height="30" as="geometry" />
        </mxCell>
        <mxCell id="aPeo5oANlTzVJLYgjjRE-25" value="修改颜色，xpp右旋" style="shape=singleArrow;whiteSpace=wrap;html=1;arrowWidth=0.4;arrowSize=0.4;" parent="1" vertex="1">
          <mxGeometry x="500" y="350" width="80" height="60" as="geometry" />
        </mxCell>
        <mxCell id="aPeo5oANlTzVJLYgjjRE-27" value="&lt;font style=&quot;font-size: 18px;&quot;&gt;情况1&lt;/font&gt;" style="text;html=1;align=center;verticalAlign=middle;resizable=0;points=[];autosize=1;strokeColor=none;fillColor=none;" parent="1" vertex="1">
          <mxGeometry x="50" y="45" width="70" height="40" as="geometry" />
        </mxCell>
        <mxCell id="aPeo5oANlTzVJLYgjjRE-28" value="&lt;font style=&quot;font-size: 18px;&quot;&gt;情况2&lt;/font&gt;" style="text;html=1;align=center;verticalAlign=middle;resizable=0;points=[];autosize=1;strokeColor=none;fillColor=none;" parent="1" vertex="1">
          <mxGeometry x="50" y="280" width="70" height="40" as="geometry" />
        </mxCell>
        <mxCell id="I_SwaH8MqL0i4XkFBtvL-1" value="&lt;font style=&quot;font-size: 18px;&quot;&gt;图2&lt;/font&gt;" style="text;html=1;align=center;verticalAlign=middle;resizable=0;points=[];autosize=1;strokeColor=none;fillColor=none;" parent="1" vertex="1">
          <mxGeometry x="380" y="480" width="50" height="40" as="geometry" />
        </mxCell>
      </root>
    </mxGraphModel>
  </diagram>
</mxfile>
